<svg xmlns="http://www.w3.org/2000/svg" viewBox="0 0 512 512">
  <defs>
    <linearGradient id="chipGradient" x1="0%" y1="0%" x2="100%" y2="100%">
      <stop offset="0%" style="stop-color:#0d294e;stop-opacity:1" />
      <stop offset="100%" style="stop-color:#05162b;stop-opacity:1" />
    </linearGradient>
  </defs>
  <!-- Pins Geometry -->
  <g stroke="#ffffff" stroke-width="8" stroke-linecap="square">
       <!-- Top Pins -->
       <path d="M106,40 V10 M156,40 V10 M206,40 V10 M256,40 V10 M306,40 V10 M356,40 V10 M406,40 V10" />
       <!-- Bottom Pins -->
       <path d="M106,472 V502 M156,472 V502 M206,472 V502 M256,472 V502 M306,472 V502 M356,472 V502 M406,472 V502" />
       <!-- Left Pins -->
       <path d="M40,106 H10 M40,156 H10 M40,206 H10 M40,256 H10 M40,306 H10 M40,356 H10 M40,406 H10" />
       <!-- Right Pins -->
       <path d="M472,106 H502 M472,156 H502 M472,206 H502 M472,256 H502 M472,306 H502 M472,356 H502 M472,406 H502" />
  </g>
  
  <!-- Main Chip Body -->
  <rect x="40" y="40" width="432" height="432" rx="20" fill="url(#chipGradient)" stroke="#ffffff" stroke-width="8" />
  
  <!-- Internal Logic Blocks (CLBs) -->
  <g fill="#4375b8">
    <rect x="100" y="100" width="50" height="50" rx="4" />
    <rect x="190" y="100" width="50" height="50" rx="4" />
    <rect x="280" y="100" width="50" height="50" rx="4" />
    <rect x="370" y="100" width="50" height="50" rx="4" />
    
    <rect x="100" y="190" width="50" height="50" rx="4" />
    <rect x="190" y="190" width="50" height="50" rx="4" />
    <rect x="280" y="190" width="50" height="50" rx="4" />
    <rect x="370" y="190" width="50" height="50" rx="4" />

    <rect x="100" y="280" width="50" height="50" rx="4" />
    <rect x="190" y="280" width="50" height="50" rx="4" />
    <rect x="280" y="280" width="50" height="50" rx="4" />
    <rect x="370" y="280" width="50" height="50" rx="4" />

    <rect x="100" y="370" width="50" height="50" rx="4" />
    <rect x="190" y="370" width="50" height="50" rx="4" />
    <rect x="280" y="370" width="50" height="50" rx="4" />
    <rect x="370" y="370" width="50" height="50" rx="4" />
  </g>
  
  <!-- Interconnects -->
  <path d="M150,125 H190 M240,125 H280 M330,125 H370
           M150,215 H190 M240,215 H280 M330,215 H370
           M150,305 H190 M240,305 H280 M330,305 H370
           M150,395 H190 M240,395 H280 M330,395 H370
           
           M125,150 V190 M125,240 V280 M125,330 V370
           M215,150 V190 M215,240 V280 M215,330 V370
           M305,150 V190 M305,240 V280 M305,330 V370
           M395,150 V190 M395,240 V280 M395,330 V370"
        stroke="#f37298" stroke-width="4" stroke-linecap="round" />

  <!-- Center Detail -->
  <circle cx="256" cy="256" r="10" fill="white" />
</svg>